<?xml version="1.0" standalone="no"?>
<!DOCTYPE svg PUBLIC "-//W3C//DTD SVG 20010904//EN"
 "http://www.w3.org/TR/2001/REC-SVG-20010904/DTD/svg10.dtd">
<svg version="1.0" xmlns="http://www.w3.org/2000/svg"
 width="192.000000pt" height="192.000000pt" viewBox="0 0 192.000000 192.000000"
 preserveAspectRatio="xMidYMid meet">

<g transform="translate(0.000000,192.000000) scale(0.100000,-0.100000)"
fill="#000000" stroke="none">
<path d="M0 960 l0 -960 950 0 950 0 0 960 0 960 -950 0 -950 0 0 -960z m974
797 c12 -9 17 -23 14 -42 -3 -27 -7 -30 -38 -30 -32 0 -35 2 -38 34 -5 47 25
65 62 38z m448 -287 c24 -7 48 -24 65 -47 l28 -36 3 -236 c2 -130 0 -251 -3
-269 -7 -40 -60 -102 -86 -102 -11 0 -22 -7 -25 -15 -5 -13 -65 -15 -455 -15
-287 0 -449 4 -449 10 0 5 -11 12 -24 16 -13 3 -39 21 -57 40 l-34 35 0 268 0
268 28 36 c16 21 42 41 60 46 45 13 902 14 949 1z m-1092 -70 c16 -9 17 -15 9
-40 -6 -17 -8 -55 -4 -87 6 -57 8 -147 5 -253 -1 -30 1 -82 5 -116 6 -48 4
-68 -10 -93 -16 -31 -17 -32 -35 -16 -10 9 -21 28 -24 42 -11 42 -52 98 -98
134 -81 64 -118 122 -118 186 1 56 19 82 78 113 23 12 58 40 78 63 32 36 81
77 92 77 2 0 12 -5 22 -10z m1339 -49 c31 -32 74 -69 96 -81 60 -35 75 -57 75
-118 0 -45 -5 -60 -34 -98 -19 -24 -55 -61 -80 -82 -49 -40 -89 -93 -100 -133
-3 -13 -13 -33 -21 -43 -15 -20 -15 -20 -30 0 -22 29 -29 99 -15 149 8 27 10
64 6 93 -17 122 -18 139 -4 180 11 31 12 60 6 109 -8 68 -3 82 31 83 8 0 39
-26 70 -59z m-1256 -581 c14 -11 37 -20 50 -20 14 0 29 -4 32 -10 3 -5 43 -10
88 -10 107 0 123 -10 79 -47 -29 -25 -33 -33 -30 -68 2 -33 7 -41 26 -43 46
-7 40 -34 -38 -169 -6 -10 -14 -28 -19 -40 -6 -11 -15 -24 -20 -28 -6 -3 -11
-14 -11 -23 -1 -9 -11 -30 -24 -46 l-24 -29 -33 19 c-60 35 -160 196 -196 318
-9 28 -16 76 -17 106 -1 54 -1 55 26 52 20 -2 33 5 49 28 27 36 29 36 62 10z
m1137 -10 c23 -24 34 -29 54 -24 14 3 29 3 34 0 14 -9 -20 -163 -55 -243 -7
-17 -13 -34 -13 -37 0 -27 -166 -226 -189 -226 -6 0 -65 98 -114 190 -16 30
-36 64 -43 75 -8 11 -14 31 -14 46 0 22 6 28 31 33 28 5 30 9 27 43 -4 46 -28
58 -28 14 l0 -31 -284 0 c-254 0 -285 2 -290 16 -4 9 -4 25 -1 35 5 16 25 17
263 18 141 0 271 0 287 1 l30 0 -25 20 c-14 10 -21 22 -17 27 5 4 50 10 100
11 51 2 96 8 102 13 5 5 18 9 30 9 11 0 34 9 50 20 17 11 32 20 33 20 2 0 17
-14 32 -30z m-410 -50 c0 -6 -73 -10 -200 -10 -127 0 -200 4 -200 10 0 6 73
10 200 10 127 0 200 -4 200 -10z m-220 -160 c0 -5 1 -13 3 -17 1 -5 -23 -10
-53 -13 l-55 -5 -3 -62 c-3 -61 -2 -63 24 -69 15 -4 45 -3 65 3 26 7 54 6 89
-1 50 -10 53 -9 72 14 15 19 19 34 15 64 -7 48 -31 69 -69 60 -24 -5 -28 -2
-28 15 0 20 6 21 83 21 88 0 107 -8 107 -46 0 -13 5 -26 11 -29 5 -4 14 -17
20 -28 5 -12 25 -49 44 -82 80 -139 90 -162 74 -181 -15 -18 -72 -45 -164 -77
-50 -16 -85 -20 -205 -20 -132 0 -152 2 -222 26 -42 15 -86 27 -97 27 -19 0
-61 43 -61 62 0 12 45 104 70 143 11 17 22 37 26 45 3 8 10 22 15 30 5 8 13
25 18 37 6 11 15 24 20 28 6 3 11 16 11 29 0 12 3 26 7 29 11 11 183 8 183 -3z"/>
<path d="M615 1413 c-56 -7 -70 -12 -100 -40 -65 -59 -65 -61 -65 -258 0 -192
2 -199 55 -251 30 -30 90 -58 109 -51 25 10 20 37 -8 37 -15 0 -41 17 -69 44
-55 53 -61 80 -55 258 4 137 15 170 72 204 28 17 58 19 329 22 238 3 297 6
297 17 0 7 -7 16 -16 19 -16 6 -497 6 -549 -1z"/>
<path d="M1250 1395 c0 -9 14 -17 38 -21 43 -7 78 -34 110 -85 20 -33 22 -49
22 -174 0 -155 -8 -178 -79 -234 l-38 -31 -214 -2 c-182 -3 -214 -5 -214 -18
0 -13 32 -15 217 -18 l216 -2 47 31 c25 17 57 49 71 70 23 37 24 46 24 204 0
159 -1 167 -25 205 -33 53 -90 90 -137 90 -27 0 -38 -4 -38 -15z"/>
<path d="M1203 1242 c-30 -5 -63 -48 -63 -84 0 -61 84 -108 141 -78 21 12 49
60 49 85 0 24 -40 77 -54 72 -6 -2 -20 -1 -31 2 -11 4 -30 5 -42 3z m75 -50
c2 -7 -6 -12 -17 -12 -21 0 -27 11 -14 24 9 9 26 2 31 -12z"/>
<path d="M566 1218 c-41 -58 4 -148 72 -148 25 1 46 9 65 25 24 21 28 31 25
67 -3 47 -31 66 -41 28 -3 -11 -12 -20 -20 -20 -26 0 -29 18 -5 35 20 13 21
17 8 25 -29 19 -88 12 -104 -12z"/>
<path d="M892 1134 c-31 -21 -28 -50 8 -69 37 -19 60 -19 88 1 24 17 29 53 10
72 -17 17 -79 15 -106 -4z"/>
<path d="M847 993 c-14 -14 -6 -40 22 -71 25 -27 37 -32 74 -32 35 0 49 6 71
29 30 31 32 64 3 69 -11 2 -20 -6 -27 -22 -14 -37 -57 -35 -95 4 -30 31 -37
35 -48 23z"/>
<path d="M685 839 c-13 -20 18 -29 90 -27 54 2 70 6 70 18 0 12 -16 16 -77 18
-50 2 -79 -1 -83 -9z"/>
</g>
</svg>
